<?xml version="1.0" encoding="utf-8"?>
<!-- Generator: Adobe Illustrator 27.0.0, SVG Export Plug-In . SVG Version: 6.00 Build 0)  -->
<svg version="1.1" id="Layer_1" xmlns="http://www.w3.org/2000/svg" xmlns:xlink="http://www.w3.org/1999/xlink" x="0px" y="0px"
	 viewBox="0 0 64 64" style="enable-background:new 0 0 64 64;" xml:space="preserve">
<style type="text/css">
	.st0{clip-path:url(#SVGID_00000088843223577218893330000002419732955581634976_);}
	.st1{fill:#F6CE17;}
	.st2{clip-path:url(#SVGID_00000012454919490816078430000010226692232859908797_);}
	.st3{fill:#7758F6;}
	.st4{fill:#FC486B;}
	.st5{clip-path:url(#SVGID_00000018201857986185399400000008461837242354968754_);}
	.st6{fill:#03CCAC;}
</style>
<g>
	<g>
		<defs>
			<rect id="SVGID_1_" x="34.5" y="8.8" width="16.4" height="29.1"/>
		</defs>
		<clipPath id="SVGID_00000041997528371942447430000016369257526308687288_">
			<use xlink:href="#SVGID_1_"  style="overflow:visible;"/>
		</clipPath>
		<g style="clip-path:url(#SVGID_00000041997528371942447430000016369257526308687288_);">
			<path class="st1" d="M35.6,25.6l-0.4,0.3l0.5,0.2c0.9,0.4,1.7,1,2.5,1.7c1.6,1.6,2.5,3.7,2.5,5.9v3.6l9.8-12.9l0.1-0.2
				c-0.4-0.7-0.9-1.3-1.4-1.9c-0.5-0.5-1.1-1-1.8-1.4c-0.1-0.1-0.3-0.2-0.4-0.2c-0.2-0.1-0.3-0.2-0.5-0.2c-0.2-0.1-0.5-0.2-0.8-0.3
				L44.8,20l0.7-0.3c1.1-0.5,2-1.4,2.6-2.4c0-0.1,0.1-0.1,0.1-0.2c0-0.1,0.1-0.1,0.1-0.2c0.3-0.7,0.5-1.5,0.5-2.3
				c0-3.1-2.6-5.7-5.7-5.7c-3.1,0-5.7,2.5-5.7,5.7c0,1,0.3,1.9,0.7,2.8c0.6,1,1.5,1.9,2.6,2.4l0.7,0.3l-0.8,0.2
				c-0.3,0.1-0.5,0.2-0.8,0.3c-0.8,0.3-1.5,0.7-2.1,1.2C37.7,23.3,36.9,24.6,35.6,25.6"/>
		</g>
	</g>
	<g>
		<defs>
			<rect id="SVGID_00000178174292004940114050000012482600599438859952_" x="13.3" y="8.8" width="16.4" height="29.1"/>
		</defs>
		<clipPath id="SVGID_00000076586746049034324350000013597556122781446556_">
			<use xlink:href="#SVGID_00000178174292004940114050000012482600599438859952_"  style="overflow:visible;"/>
		</clipPath>
		<g style="clip-path:url(#SVGID_00000076586746049034324350000013597556122781446556_);">
			<path class="st3" d="M28.7,26.1l0.5-0.2l-0.4-0.3c-1.3-0.9-2.1-2.3-2.2-3.8c-0.6-0.5-1.3-0.9-2.1-1.2c-0.2-0.1-0.5-0.2-0.8-0.3
				L22.9,20l0.7-0.3c1.1-0.5,2-1.4,2.6-2.4c0.5-0.8,0.7-1.8,0.7-2.8c0-3.1-2.6-5.7-5.7-5.7c-3.1,0-5.7,2.5-5.7,5.7
				c0,0.8,0.2,1.6,0.5,2.3c0,0.1,0.1,0.2,0.1,0.2c0,0.1,0.1,0.2,0.1,0.2c0.6,1,1.5,1.9,2.6,2.4l0.7,0.3l-0.8,0.2
				c-0.3,0.1-0.5,0.2-0.8,0.3c-0.1,0-0.2,0.1-0.3,0.1c0,0-0.1,0-0.1,0c0,0-0.1,0-0.1,0.1c-0.1,0.1-0.3,0.1-0.4,0.2
				c-1,0.6-1.9,1.3-2.6,2.3c-0.2,0.3-0.5,0.7-0.7,1l0.1,0.2l9.8,12.9v-3.6C23.8,30.5,25.7,27.5,28.7,26.1"/>
		</g>
	</g>
	<path class="st4" d="M38.2,27.8c-0.7-0.7-1.5-1.3-2.5-1.7l-0.5-0.2l0.4-0.3c1.3-0.9,2.1-2.3,2.3-3.8c0-0.1,0-0.2,0-0.3
		c0-0.1,0-0.2,0-0.2c0-0.1,0-0.2,0-0.2c0-0.2,0-0.3,0-0.5c-0.1-1.2-0.6-2.4-1.4-3.2c-1-1.2-2.6-1.9-4.3-1.9c-1.7,0-3.3,0.8-4.3,1.9
		c-0.8,0.9-1.3,2-1.4,3.2c0,0.2,0,0.3,0,0.5c0,0.1,0,0.2,0,0.2c0,0.1,0,0.2,0,0.2c0,0.1,0,0.2,0,0.3c0.2,1.5,1,2.9,2.2,3.8l0.4,0.3
		l-0.5,0.2c-3,1.4-4.9,4.3-4.9,7.6v3.6l0.2,0.2l0.2,0.2v0l5,6.6l3,4l3-4l5-6.6l0.2-0.2l0.2-0.2v-3.6C40.6,31.5,39.7,29.4,38.2,27.8"
		/>
	<g>
		<defs>
			<rect id="SVGID_00000123401324394836125340000003096024536432340121_" x="2.4" y="16.7" width="59.5" height="39.9"/>
		</defs>
		<clipPath id="SVGID_00000069383882164806934940000006191709232435616389_">
			<use xlink:href="#SVGID_00000123401324394836125340000003096024536432340121_"  style="overflow:visible;"/>
		</clipPath>
		<g style="clip-path:url(#SVGID_00000069383882164806934940000006191709232435616389_);">
			<path class="st6" d="M62,17.3L32.2,56.6L2.5,17.3h10.3l3.4,3.4H9.3l22.9,30.2l22.9-30.2h-6.9l3.4-3.4H62"/>
		</g>
	</g>
	<g>
		<g transform="translate(137.730125, 256.863593)">
		</g>
	</g>
	<g>
		<g transform="translate(218.892513, 256.863593)">
		</g>
	</g>
</g>
</svg>
