<?xml version="1.0" encoding="utf-8"?>
<!-- Generator: Adobe Illustrator 27.0.0, SVG Export Plug-In . SVG Version: 6.00 Build 0)  -->
<svg version="1.1" id="Layer_1" xmlns="http://www.w3.org/2000/svg" xmlns:xlink="http://www.w3.org/1999/xlink" x="0px" y="0px"
	 viewBox="0 0 512 512" style="enable-background:new 0 0 512 512;" xml:space="preserve">
<style type="text/css">
	.st0{clip-path:url(#SVGID_00000139989131752585037970000017572907700169536150_);}
	.st1{fill:#FFFFFF;stroke:#20242B;stroke-miterlimit:10;}
	.st2{clip-path:url(#SVGID_00000170978430034095867480000018112364129302559634_);}
	.st3{clip-path:url(#SVGID_00000084501450850664586280000010465280328592850877_);}
	.st4{fill:#FFFFFF;}
</style>
<g>
	<g>
		<g>
			<defs>
				<rect id="SVGID_1_" x="268.7" y="99.4" width="69.9" height="123.6"/>
			</defs>
			<clipPath id="SVGID_00000031908610563736841070000007116112882954386077_">
				<use xlink:href="#SVGID_1_"  style="overflow:visible;"/>
			</clipPath>
			<g style="clip-path:url(#SVGID_00000031908610563736841070000007116112882954386077_);">
				<path class="st1" d="M273.4,170.6l-1.8,1.3l2,0.9c3.9,1.8,7.4,4.2,10.5,7.2c6.7,6.7,10.5,15.6,10.5,25.1v15.5l41.7-55l0.6-0.8
					c-1.6-2.9-3.7-5.7-6.1-8.1c-2.3-2.3-4.9-4.2-7.7-5.8c-0.6-0.3-1.2-0.7-1.8-1c-0.7-0.3-1.4-0.7-2.1-1c-1.1-0.4-2.1-0.8-3.2-1.1
					l-3.3-1l3.2-1.5c4.7-2.2,8.5-5.8,11-10.2c0.2-0.3,0.4-0.6,0.5-1c0.2-0.3,0.3-0.6,0.5-1c1.4-3,2.1-6.4,2.1-9.9
					c0-13.3-10.9-24.2-24.3-24.2s-24.3,10.8-24.3,24.2c0,4.2,1.1,8.2,3.1,11.8c2.5,4.4,6.3,8,11,10.2l3.2,1.5l-3.3,1
					c-1.1,0.3-2.2,0.7-3.2,1.1c-3.2,1.3-6.2,3.1-8.9,5.2C282.1,160.8,278.8,166.6,273.4,170.6"/>
			</g>
		</g>
	</g>
	<g>
		<g>
			<defs>
				<rect id="SVGID_00000136384309437386375670000005176659248059511436_" x="178.5" y="99.4" width="69.9" height="123.6"/>
			</defs>
			<clipPath id="SVGID_00000118385725695128538440000018358432162160355998_">
				<use xlink:href="#SVGID_00000136384309437386375670000005176659248059511436_"  style="overflow:visible;"/>
			</clipPath>
			<g style="clip-path:url(#SVGID_00000118385725695128538440000018358432162160355998_);">
				<path class="st1" d="M244.1,172.9l2-0.9l-1.8-1.3c-5.4-4-8.8-9.8-9.6-16.3c-2.7-2.2-5.7-3.9-8.9-5.2c-1.1-0.4-2.1-0.8-3.2-1.1
					l-3.3-1l3.2-1.5c4.7-2.2,8.5-5.8,11-10.2c2-3.5,3.1-7.6,3.1-11.8c0-13.3-10.9-24.2-24.3-24.2c-13.4,0-24.3,10.8-24.3,24.2
					c0,3.4,0.8,6.8,2.1,9.9c0.1,0.3,0.3,0.6,0.5,1c0.2,0.3,0.3,0.6,0.5,1c2.5,4.4,6.3,8,11,10.2l3.2,1.5l-3.3,1
					c-1.1,0.3-2.2,0.7-3.2,1.1c-0.4,0.2-0.8,0.3-1.2,0.5c-0.1,0.1-0.3,0.1-0.4,0.2c-0.2,0.1-0.3,0.2-0.5,0.2c-0.6,0.3-1.2,0.6-1.8,1
					c-4.3,2.4-8.1,5.7-11,9.6c-1,1.4-2,2.8-2.8,4.3l0.6,0.7l41.7,55v-15.5C223.1,191.4,231.3,178.7,244.1,172.9"/>
			</g>
		</g>
	</g>
	<path class="st1" d="M284.1,180.1c-3-3-6.6-5.5-10.5-7.2l-2-0.9l1.8-1.3c5.4-4,8.8-9.8,9.6-16.3c0-0.4,0.1-0.7,0.1-1.1
		c0-0.3,0.1-0.7,0.1-1s0-0.7,0-1c0-0.7,0-1.4-0.1-2.1c-0.5-5.3-2.6-10-5.9-13.8c-4.5-5.1-11-8.3-18.3-8.3c-7.3,0-13.8,3.2-18.3,8.3
		c-3.3,3.8-5.5,8.5-5.9,13.8c-0.1,0.7-0.1,1.4-0.1,2.1c0,0.3,0,0.7,0,1s0,0.7,0.1,1c0,0.4,0.1,0.7,0.1,1.1
		c0.8,6.5,4.2,12.3,9.6,16.3l1.8,1.3l-2,0.9c-12.7,5.8-21,18.5-21,32.4v15.5l0.8,1l0.8,1l0,0l21.2,28.1l13,17.1l13-17.1l21.2-28.1
		l0.8-1l0.8-1v-15.5C294.6,195.8,290.9,186.8,284.1,180.1"/>
	<g>
		<g>
			<defs>
				<rect id="SVGID_00000164516071389563250490000003289925915551934873_" x="132.2" y="132.8" width="253.3" height="169.7"/>
			</defs>
			<clipPath id="SVGID_00000141442952766782937090000016285590524341357247_">
				<use xlink:href="#SVGID_00000164516071389563250490000003289925915551934873_"  style="overflow:visible;"/>
			</clipPath>
			<g style="clip-path:url(#SVGID_00000141442952766782937090000016285590524341357247_);">
				<path class="st4" d="M385.4,135.3L258.8,302.5L132.3,135.3h43.9l14.6,14.5h-29.2l97.3,128.5l97.3-128.5H327l14.6-14.5
					L385.4,135.3"/>
			</g>
		</g>
	</g>
	<g>
		<g transform="translate(116.081807, 244.613583)">
			<g>
				<path class="st4" d="M-30.5,138.1c17.5,0,30.2-2.4,30.2-15.4c0-12.3-11.9-13.3-31.2-14.4c-15.2-0.9-18.4-1.9-18.4-6.2
					c0-4,3.3-5.5,16.6-5.5c14.2,0,19.9,1.6,19.9,7.8h11c0-12-11.2-16.6-29.6-16.6c-18,0-29.1,3.1-29.1,13.8
					c0,10.9,8.5,14.2,29.5,15.2c17.1,0.9,20.2,1.6,20.2,6.3c0,4.3-4.7,6.1-18.4,6.1c-17.1,0-22-2.7-22-8.6h-11
					C-62.8,134.7-50.5,138.1-30.5,138.1z"/>
			</g>
		</g>
	</g>
	<g>
		<g transform="translate(146.057852, 244.613583)">
			<g>
				<path class="st4" d="M25.3,138.1c21.5,0,30.7-9.3,30.7-25.2s-9.3-25.1-30.7-25.1C3.8,87.8-5.5,97-5.5,112.9
					C-5.5,128.9,3.8,138.1,25.3,138.1z M25.3,128.8c-13.8,0-19.7-4.6-19.7-15.9c0-11.2,5.9-15.8,19.7-15.8S45,101.7,45,112.9
					C45,124.2,39.1,128.8,25.3,128.8z"/>
			</g>
		</g>
	</g>
	<g>
		<g transform="translate(175.697899, 244.613583)">
			<g>
				<path class="st4" d="M51.9,137.4h11V99.8l36.8,37.6H115V88.5h-11v37.6L67.2,88.5H51.9V137.4z"/>
			</g>
		</g>
	</g>
	<g>
		<g transform="translate(206.345941, 244.613583)">
			<g>
				<path class="st4" d="M139,138.1c10.5,0,18.1-3.4,22.9-8.6l0.3,7.9h9v-26.1h-30.9v7.8H160c-0.1,3.8-5.2,10.3-18.9,10.3
					c-17.8,0-20.2-10.3-20.2-16.3c0-5.9,2.4-16,20.2-16c14.8,0,18.2,6.4,18.9,10.4h11.2c-0.8-11.8-10.5-19.7-30.1-19.7
					c-20.1,0-31.2,9.2-31.2,25.2S120.9,138.1,139,138.1z"/>
			</g>
		</g>
	</g>
	<g>
		<g transform="translate(235.913982, 244.613583)">
			<g>
				<path class="st4" d="M197.1,138.1c21.5,0,30.7-9.3,30.7-25.2s-9.3-25.1-30.7-25.1c-21.5,0-30.7,9.2-30.7,25.1
					C166.3,128.9,175.6,138.1,197.1,138.1z M197.1,128.8c-13.8,0-19.7-4.6-19.7-15.9c0-11.2,5.9-15.8,19.7-15.8s19.7,4.6,19.7,15.8
					C216.8,124.2,210.9,128.8,197.1,128.8z"/>
			</g>
		</g>
	</g>
	<g>
		<g transform="translate(105.023966, 256.863593)">
			<g>
				<path class="st4" d="M-78.1,161c5.4,0,7.7-2.1,7.7-6.3v-6.1h-2.8v6.1c0,1.8-0.5,4-4.9,4s-4.9-2.2-4.9-4v-6.1h-2.8v6.1
					C-85.8,159-83.5,161-78.1,161z"/>
			</g>
		</g>
	</g>
	<g>
		<g transform="translate(112.092003, 256.863593)">
			<g>
				<path class="st4" d="M-72.3,160.9h2.8v-9.4l9.2,9.4h3.8v-12.2h-2.8v9.4l-9.2-9.4h-3.8V160.9z"/>
			</g>
		</g>
	</g>
	<g>
		<g transform="translate(119.292044, 256.863593)">
			<g>
				<path class="st4" d="M-58.5,160.9h2.8v-12.2h-2.8V160.9z"/>
			</g>
		</g>
	</g>
	<g>
		<g transform="translate(122.028054, 256.863593)">
			<g>
				<path class="st4" d="M-47.3,160.9h2.8V151h6.1v-2.3h-15v2.3h6.1C-47.3,151-47.3,160.9-47.3,160.9z"/>
			</g>
		</g>
	</g>
	<g>
		<g transform="translate(128.856085, 256.863593)">
			<g>
				<path class="st4" d="M-40.2,160.9h12.9v-2.2h-10.2v-2.8h10.2v-2.1h-10.2V151h10.2v-2.2h-12.9C-40.2,148.8-40.2,160.9-40.2,160.9
					z"/>
			</g>
		</g>
	</g>
	<g>
		<g transform="translate(135.024114, 256.863593)">
			<g>
				<path class="st4" d="M-28.3,164.2h1.3l1.3-3.3v-2.1h-2.7v2.1h0.9L-28.3,164.2z"/>
			</g>
		</g>
	</g>
	<g>
		<g transform="translate(137.730125, 256.863593)">
		</g>
	</g>
	<g>
		<g transform="translate(141.768144, 256.863593)">
			<g>
				<path class="st4" d="M-8,161c4.9,0,7.3-1.9,7.6-5.3h-2.8c-0.3,2.2-2,3-4.8,3c-3.3,0-4.9-1.1-4.9-4c0-2.8,1.6-3.9,4.9-3.9
					c2.8,0,4.5,0.8,4.8,3h2.8c-0.3-3.4-2.7-5.3-7.6-5.3c-5.4,0-7.7,2.3-7.7,6.3C-15.7,158.7-13.4,161-8,161z"/>
			</g>
		</g>
	</g>
	<g>
		<g transform="translate(148.698181, 256.863593)">
			<g>
				<path class="st4" d="M5.2,161c5.4,0,7.7-2.3,7.7-6.3s-2.3-6.3-7.7-6.3s-7.7,2.3-7.7,6.3S-0.1,161,5.2,161z M5.2,158.7
					c-3.4,0-4.9-1.1-4.9-4c0-2.8,1.5-3.9,4.9-3.9s4.9,1.1,4.9,3.9C10.2,157.5,8.7,158.7,5.2,158.7z"/>
			</g>
		</g>
	</g>
	<g>
		<g transform="translate(155.646217, 256.863593)">
			<g>
				<path class="st4" d="M11,160.9h12.6v-2.3h-9.8v-9.9H11V160.9z"/>
			</g>
		</g>
	</g>
	<g>
		<g transform="translate(161.694251, 256.863593)">
			<g>
				<path class="st4" d="M22.6,160.9h12.6v-2.3h-9.8v-9.9h-2.8C22.6,148.7,22.6,160.9,22.6,160.9z"/>
			</g>
		</g>
	</g>
	<g>
		<g transform="translate(167.742286, 256.863593)">
			<g>
				<path class="st4" d="M34,160.9h3l1.5-2.7h7.8l1.5,2.7h3.1l-6.7-12.2h-3.6L34,160.9z M39.6,156l2.8-5.1l2.8,5.1H39.6z"/>
			</g>
		</g>
	</g>
	<g>
		<g transform="translate(175.206323, 256.863593)">
			<g>
				<path class="st4" d="M48.4,160.9h11.2c2.8,0,4-1.5,4-3.5c0-1.5-0.6-2.4-1.7-3c0.6-0.7,1-1.5,1-2.4c0-1.8-0.9-3.2-3.6-3.2H48.4
					V160.9z M51.2,153.6v-2.8h7.1c1,0,1.8,0,1.8,1.4s-0.8,1.4-1.8,1.4L51.2,153.6L51.2,153.6z M51.2,158.7v-2.9H59
					c1,0,1.8,0,1.8,1.5s-0.8,1.5-1.8,1.5h-7.8V158.7z"/>
			</g>
		</g>
	</g>
	<g>
		<g transform="translate(182.142354, 256.863593)">
			<g>
				<path class="st4" d="M69.2,161c5.4,0,7.7-2.3,7.7-6.3s-2.3-6.3-7.7-6.3c-5.4,0-7.7,2.3-7.7,6.3C61.5,158.7,63.8,161,69.2,161z
					 M69.2,158.7c-3.4,0-4.9-1.1-4.9-4c0-2.8,1.5-3.9,4.9-3.9s4.9,1.1,4.9,3.9C74.1,157.5,72.6,158.7,69.2,158.7z"/>
			</g>
		</g>
	</g>
	<g>
		<g transform="translate(189.090386, 256.863593)">
			<g>
				<path class="st4" d="M74.9,160.9h2.8v-3.4h5.7l2.1,3.4h3.3l-2.3-3.7c1.7-0.6,2.8-2,2.8-4.1c0-2.7-1.9-4.4-4.7-4.4H75v12.2H74.9z
					 M77.7,155.2V151h6c1.1,0,2.8,0,2.8,2.1s-1.7,2.1-2.8,2.1L77.7,155.2L77.7,155.2z"/>
			</g>
		</g>
	</g>
	<g>
		<g transform="translate(195.726413, 256.863593)">
			<g>
				<path class="st4" d="M87.5,160.9h3.1l1.5-2.7h7.8l1.5,2.7h3.1l-6.7-12.2h-3.6L87.5,160.9z M93.1,156l2.8-5.1l2.8,5.1H93.1z"/>
			</g>
		</g>
	</g>
	<g>
		<g transform="translate(203.190451, 256.863593)">
			<g>
				<path class="st4" d="M107.9,160.9h2.8V151h6.1v-2.3h-15v2.3h6.1V160.9z"/>
			</g>
		</g>
	</g>
	<g>
		<g transform="translate(210.01848, 256.863593)">
			<g>
				<path class="st4" d="M115,160.9h12.9v-2.2h-10.2v-2.8h10.2v-2.1h-10.2V151h10.2v-2.2H115V160.9z"/>
			</g>
		</g>
	</g>
	<g>
		<g transform="translate(216.186506, 256.863593)">
			<g>
				<path class="st4" d="M126.9,164.2h1.3l1.3-3.3v-2.1h-2.7v2.1h0.9L126.9,164.2z"/>
			</g>
		</g>
	</g>
	<g>
		<g transform="translate(218.892513, 256.863593)">
		</g>
	</g>
	<g>
		<g transform="translate(222.930528, 256.863593)">
			<g>
				<path class="st4" d="M147.2,161c4.9,0,7.3-1.9,7.6-5.3H152c-0.3,2.2-2,3-4.8,3c-3.3,0-4.9-1.1-4.9-4c0-2.8,1.6-3.9,4.9-3.9
					c2.8,0,4.5,0.8,4.8,3h2.8c-0.3-3.4-2.7-5.3-7.6-5.3c-5.4,0-7.7,2.3-7.7,6.3C139.5,158.7,141.8,161,147.2,161z"/>
			</g>
		</g>
	</g>
	<g>
		<g transform="translate(229.860561, 256.863593)">
			<g>
				<path class="st4" d="M160.4,161c5.4,0,7.7-2.3,7.7-6.3s-2.3-6.3-7.7-6.3s-7.7,2.3-7.7,6.3S155,161,160.4,161z M160.4,158.7
					c-3.4,0-4.9-1.1-4.9-4c0-2.8,1.5-3.9,4.9-3.9s4.9,1.1,4.9,3.9C165.3,157.5,163.9,158.7,160.4,158.7z"/>
			</g>
		</g>
	</g>
	<g>
		<g transform="translate(236.808593, 256.863593)">
			<g>
				<path class="st4" d="M166.2,160.9h2.8v-9.4l9.2,9.4h3.8v-12.2h-2.8v9.4l-9.2-9.4h-3.8V160.9z"/>
			</g>
		</g>
	</g>
	<g>
		<g transform="translate(244.008631, 256.863593)">
			<g>
				<path class="st4" d="M194,162.3l2-2l-1.9-1.9c0.7-1,1.1-2.2,1.1-3.7c0-4-2.3-6.3-7.7-6.3s-7.7,2.3-7.7,6.3s2.3,6.3,7.7,6.3
					c1.9,0,3.3-0.3,4.5-0.8L194,162.3z M187.5,158.7c-3.4,0-4.9-1.1-4.9-4c0-2.8,1.5-3.9,4.9-3.9s4.9,1.1,4.9,3.9
					C192.4,157.5,190.9,158.7,187.5,158.7z"/>
			</g>
		</g>
	</g>
	<g>
		<g transform="translate(251.292669, 256.863593)">
			<g>
				<path class="st4" d="M201.6,161c5.4,0,7.7-2.1,7.7-6.3v-6.1h-2.8v6.1c0,1.8-0.5,4-4.9,4s-4.9-2.2-4.9-4v-6.1h-2.8v6.1
					C193.9,159,196.2,161,201.6,161z"/>
			</g>
		</g>
	</g>
	<g>
		<g transform="translate(258.360703, 256.863593)">
			<g>
				<path class="st4" d="M207.4,160.9h12.9v-2.2h-10.2v-2.8h10.2v-2.1h-10.2V151h10.2v-2.2h-12.9V160.9z"/>
			</g>
		</g>
	</g>
	<g>
		<g transform="translate(264.528729, 256.863593)">
			<g>
				<path class="st4" d="M219.2,160.9h2.8v-3.4h5.7l2.1,3.4h3.3l-2.3-3.7c1.7-0.6,2.8-2,2.8-4.1c0-2.7-1.9-4.4-4.7-4.4h-9.6v12.2
					H219.2z M221.9,155.2V151h6c1.1,0,2.8,0,2.8,2.1s-1.7,2.1-2.8,2.1L221.9,155.2L221.9,155.2z"/>
			</g>
		</g>
	</g>
</g>
</svg>
